<svg xmlns="http://www.w3.org/2000/svg" viewBox="0 0 101 101"><title>fg</title><g style="isolation:isolate"><g id="Layer_1" data-name="Layer 1"><g opacity="0.85" style="mix-blend-mode:multiply"><path d="M50.5,2.5a48,48,0,1,1-48,48,48.05,48.05,0,0,1,48-48m0-2a50,50,0,1,0,50,50,50,50,0,0,0-50-50Z" fill="#fff"/></g><path d="M63.48,53.24a107.27,107.27,0,0,0-8.62-16.95C53.49,34,52,31.77,50.54,29.41c-.65,1-1.2,1.82-1.74,2.66-4,6.39-7.95,12.82-10.75,19.86a14.53,14.53,0,0,0-1.22,8.15A13.93,13.93,0,0,0,54,71.15C61.38,69.25,66.46,61.1,63.48,53.24Z" fill="none" stroke="#fff" stroke-linecap="round" stroke-linejoin="round" stroke-width="2" fill-rule="evenodd"/><path d="M55.57,58.14a16.15,16.15,0,0,1,1.09,2c.07.16.22.5-.36.89a1,1,0,0,1-.57.16A1.13,1.13,0,0,1,55,61c-.44-.38-.33-.65-.29-.74.32-.71.59-1.41.85-2.09m-.66-5.59c-1.09,2.19-1.69,4.35-2.68,6.58a3.29,3.29,0,0,0,1,3.91,3.83,3.83,0,0,0,2.48.89,3.75,3.75,0,0,0,2.09-.62,3.35,3.35,0,0,0,1.34-4.22c-1-2.22-2.69-4.34-3.77-6.5l-.48,0Z" fill="#fff"/></g></g></svg>