<svg xmlns="http://www.w3.org/2000/svg" viewBox="0 0 101 101"><title>agua_layer_on</title><g style="isolation:isolate"><g id="Layer_1" data-name="Layer 1"><g opacity="0.85" style="mix-blend-mode:multiply"><path d="M50.5,100.12A49.63,49.63,0,1,1,100.13,50.5,49.68,49.68,0,0,1,50.5,100.12Z" fill="#99c23c"/><path d="M50.5,1.25A49.25,49.25,0,1,1,1.25,50.5,49.31,49.31,0,0,1,50.5,1.25m0-.75a50,50,0,1,0,50,50,50,50,0,0,0-50-50Z" fill="#fff"/></g><path d="M63.48,54.66a107.27,107.27,0,0,0-8.62-16.95c-1.37-2.29-2.83-4.52-4.31-6.88-.65,1-1.2,1.82-1.74,2.66-4,6.39-7.95,12.82-10.75,19.86a14.53,14.53,0,0,0-1.22,8.15A13.93,13.93,0,0,0,54,72.57C61.38,70.67,66.46,62.52,63.48,54.66Z" fill="none" stroke="#fff" stroke-linecap="round" stroke-linejoin="round" stroke-width="4" fill-rule="evenodd"/><path d="M54.12,56.33c-.77,1.8-1.15,3.55-1.84,5.38a2.63,2.63,0,0,0,1,3.08,3.07,3.07,0,0,0,2,.6,3,3,0,0,0,1.65-.59,2.68,2.68,0,0,0,.88-3.44c-.86-1.73-2.35-3.35-3.31-5Z" fill="#fff"/></g></g></svg>