<svg xmlns="http://www.w3.org/2000/svg" viewBox="0 0 101 101"><title>fg</title><g style="isolation:isolate"><g id="Layer_1" data-name="Layer 1"><g opacity="0.85" style="mix-blend-mode:multiply"><path d="M50.5,2.5a48,48,0,1,1-48,48,48.05,48.05,0,0,1,48-48m0-2a50,50,0,1,0,50,50,50,50,0,0,0-50-50Z" fill="#fff"/></g><path d="M71.83,55.24a13.84,13.84,0,0,1-13.31,11h-.2A.32.32,0,0,1,58,66V63.25a.32.32,0,0,1,.31-.32,10.4,10.4,0,0,0,7.86-3.65,10.24,10.24,0,0,0,2.53-6.76,10.39,10.39,0,0,0-3-7.34A10.81,10.81,0,0,0,57.86,42a.32.32,0,0,1-.3-.41l.11-.38c.07-.27.15-.53.23-.79a7.64,7.64,0,0,0-1.15-7.27,7.82,7.82,0,0,0-13.88,3,7.94,7.94,0,0,0,.32,4.48c.06.2.12.4.18.62l.09.31a.31.31,0,0,1,0,.27.31.31,0,0,1-.23.14l-.49.06-1,.13a10.43,10.43,0,0,0-9.18,8.39,9.19,9.19,0,0,0,1.71,7.11,12.58,12.58,0,0,0,8.3,5.15c.13,0,.37.05.44.26a.33.33,0,0,1,.09.22v2.66a.32.32,0,0,1-.3.32A13.78,13.78,0,0,1,30.83,45.42a13.88,13.88,0,0,1,8.52-6.34,11.07,11.07,0,0,1,4.06-10,10.8,10.8,0,0,1,8.13-2.5,11.25,11.25,0,0,1,7.76,4.21,11.1,11.1,0,0,1,2.36,8.26A13.82,13.82,0,0,1,71.83,55.24Z" fill="#fff"/><path d="M58.18,51.9l-.11.08-.24.17c-1,.7-2,1.41-2.91,2.09s-2,1.51-3.15,2.26a.47.47,0,0,0-.26.47c0,4.79,0,8.54,0,13.48v3.15a.83.83,0,0,1-.83.83h-1a.32.32,0,0,1-.23-.09l-.51-.51a.33.33,0,0,1-.09-.23V71c0-3.48,0-5.48,0-9a1.24,1.24,0,0,0-.37-.88l-4-4L44,56.68a1.41,1.41,0,0,1,0-2l.08-.08a1.34,1.34,0,0,1,1.9,0l2.54,2.54a.18.18,0,0,0,.21,0,.19.19,0,0,0,.12-.18V48.85A1.21,1.21,0,0,1,50,47.64h.17a1.3,1.3,0,0,1,1.3,1.3v4.58a.19.19,0,0,0,.1.17.19.19,0,0,0,.2,0l4.4-3a1.24,1.24,0,0,1,1.72.32l.11.16.21.31A.32.32,0,0,1,58.18,51.9Z" fill="#fff"/></g></g></svg>