<?xml version="1.0" encoding="utf-8"?>
<!-- Generator: Adobe Illustrator 21.1.0, SVG Export Plug-In . SVG Version: 6.00 Build 0)  -->
<svg version="1.1" id="Layer_1" xmlns="http://www.w3.org/2000/svg" xmlns:xlink="http://www.w3.org/1999/xlink" x="0px" y="0px"
	 viewBox="0 0 74 74" style="enable-background:new 0 0 74 74;" xml:space="preserve">
<style type="text/css">
	.st0{opacity:0.85;}
	.st1{fill:#FFFFFF;}
</style>
<title>lluvia_layer</title>
<g>
	<g id="Capa_1">
		<g class="st0">
			<path class="st1" d="M37,2.3c19.2,0,34.7,15.6,34.7,34.7S56.2,71.7,37,71.7S2.3,56.2,2.3,37c0,0,0,0,0,0
				C2.3,17.8,17.8,2.3,37,2.3 M37,0.3C16.7,0.3,0.3,16.7,0.3,37S16.7,73.7,37,73.7S73.7,57.3,73.7,37c0,0,0,0,0,0
				C73.7,16.7,57.3,0.3,37,0.3z"/>
		</g>
		<g id="_Group_">
			<path class="st1" d="M48.3,38.9h-0.4c-4.9,0-9.9,0-14.8,0c-0.5,0-1-0.1-1.6-0.2c-4.5-0.8-7.6-5.1-6.8-9.7s5.1-7.6,9.7-6.8
				c3.3,0.6,5.9,3.1,6.7,6.3c3.2-1.5,5.5-1,7.7,1.6c0.1,0.2,0.3,0.3,0.5,0.4c1,0.3,2,0.6,3,1c-0.5-3.8-4.6-7-8.8-6.6
				c-0.5,0.1-1-0.2-1.2-0.6c-2.7-3.8-6.4-5.6-11.1-4.9c-4.4,0.5-8,3.8-9,8.1c-1.3,4.2,0.2,8.8,3.7,11.5c1.1,0.9,2.2,1.7,3.4,2.4
				h19.9c1.8-0.5,3-2.1,3-3.9L48.3,38.9z"/>
		</g>
		<path class="st1" d="M32.3,47.4c0-0.6-0.1-1.2-0.2-1.7c0-0.2-0.1-0.5-0.2-0.7l-0.2,0.2c-0.6,0.4-1.1,0.9-1.5,1.4
			c-0.2,0.2-0.3,0.4-0.4,0.7c-0.1,0.7,0.4,1.4,1,1.5c0,0,0.1,0,0.1,0c0.7,0.1,1.3-0.5,1.4-1.1C32.3,47.5,32.3,47.5,32.3,47.4z"/>
		<path class="st1" d="M38.3,47.4c0-0.6-0.1-1.2-0.3-1.7c0-0.2-0.1-0.5-0.2-0.7l-0.2,0.2c-0.6,0.4-1.1,0.9-1.5,1.4
			c-0.2,0.2-0.3,0.4-0.4,0.7c-0.1,0.7,0.4,1.4,1,1.5c0,0,0.1,0,0.1,0c0.7,0.1,1.3-0.4,1.4-1.1C38.3,47.6,38.3,47.5,38.3,47.4z"/>
		<path class="st1" d="M44.2,47.4c0-0.6-0.1-1.2-0.2-1.7c0-0.2-0.1-0.5-0.2-0.7l-0.2,0.2c-0.6,0.4-1.1,0.9-1.5,1.4
			c-0.2,0.2-0.3,0.4-0.4,0.7c-0.1,0.7,0.4,1.4,1,1.5c0,0,0.1,0,0.1,0c0.7,0.1,1.3-0.5,1.4-1.2C44.2,47.5,44.2,47.5,44.2,47.4z"/>
		<path class="st1" d="M35.7,53.4c0-0.6-0.1-1.2-0.2-1.7c0-0.2-0.1-0.5-0.2-0.7l-0.2,0.2c-0.6,0.4-1.1,0.9-1.5,1.4
			c-0.2,0.2-0.3,0.4-0.4,0.7c-0.1,0.7,0.4,1.4,1,1.5c0,0,0.1,0,0.1,0c0.7,0.1,1.3-0.5,1.4-1.1C35.7,53.5,35.7,53.4,35.7,53.4z"/>
		<path class="st1" d="M41.7,53.4c0-0.6-0.1-1.2-0.2-1.7c0-0.2-0.1-0.5-0.2-0.7l-0.2,0.2c-0.6,0.4-1.1,0.9-1.5,1.4
			c-0.2,0.2-0.3,0.4-0.4,0.7c-0.1,0.7,0.4,1.4,1,1.5c0,0,0.1,0,0.1,0c0.7,0.1,1.3-0.5,1.4-1.1C41.7,53.5,41.7,53.4,41.7,53.4z"/>
		<path class="st1" d="M49.8,47.4c0-0.6-0.1-1.2-0.2-1.7c0-0.2-0.1-0.5-0.2-0.7l-0.2,0.2c-0.6,0.4-1.1,0.9-1.5,1.4
			c-0.2,0.2-0.3,0.4-0.4,0.7c-0.1,0.7,0.4,1.4,1,1.5c0,0,0.1,0,0.1,0c0.7,0.1,1.3-0.5,1.4-1.1C49.7,47.5,49.8,47.5,49.8,47.4z"/>
		<path class="st1" d="M47.2,53.4c0-0.6-0.1-1.2-0.2-1.7c0-0.2-0.1-0.5-0.2-0.7l-0.2,0.2c-0.6,0.4-1.1,0.9-1.5,1.4
			c-0.2,0.2-0.3,0.4-0.4,0.7c-0.1,0.7,0.4,1.4,1,1.5c0,0,0.1,0,0.1,0c0.7,0.1,1.3-0.5,1.4-1.2C47.2,53.5,47.2,53.4,47.2,53.4z"/>
	</g>
</g>
</svg>
