<svg xmlns="http://www.w3.org/2000/svg" viewBox="0 0 74 74"><title>lluvia_layer</title><g style="isolation:isolate"><g id="Capa_1" data-name="Capa 1"><g opacity="0.85" style="mix-blend-mode:multiply"><path d="M37,73.36A36.36,36.36,0,1,1,73.36,37,36.41,36.41,0,0,1,37,73.36Z" fill="#9ac328"/><path d="M37,1A36,36,0,1,1,1,37,36,36,0,0,1,37,1m0-.75A36.74,36.74,0,1,0,73.74,37,36.74,36.74,0,0,0,37,.26Z" fill="#fff"/></g><g id="_Group_" data-name="&lt;Group&gt;"><path d="M48.28,38.87h-.36c-4.94,0-9.89,0-14.83,0a10,10,0,0,1-1.56-.15,8.35,8.35,0,1,1,9.57-10.15c3.17-1.52,5.52-1,7.65,1.63a1.27,1.27,0,0,0,.53.39c1,.34,2,.65,3,1-.46-3.83-4.63-7-8.81-6.59a1.08,1.08,0,0,1-1.17-.59c-2.7-3.84-6.39-5.6-11.06-4.86a10.5,10.5,0,0,0-9,8.12A10.59,10.59,0,0,0,25.9,39.13a30.51,30.51,0,0,0,3.39,2.43H49.22a4,4,0,0,0,3-3.92Z" fill="#fff"/></g><path d="M32.31,47.45a9.85,9.85,0,0,0-.23-1.73c0-.24-.11-.48-.16-.73l-.23.18a11.35,11.35,0,0,0-1.54,1.39,1.33,1.33,0,0,0-.36.67,1.28,1.28,0,0,0,1.15,1.49A1.26,1.26,0,0,0,32.31,47.45Z" fill="#fff" fill-rule="evenodd"/><path d="M38.27,47.45A9.85,9.85,0,0,0,38,45.72c0-.24-.11-.48-.16-.73l-.23.18a11.36,11.36,0,0,0-1.54,1.39,1.33,1.33,0,0,0-.36.67,1.28,1.28,0,0,0,1.15,1.49A1.26,1.26,0,0,0,38.27,47.45Z" fill="#fff" fill-rule="evenodd"/><path d="M44.22,47.45A9.85,9.85,0,0,0,44,45.72c0-.24-.11-.48-.16-.73l-.23.18a11.36,11.36,0,0,0-1.54,1.39,1.33,1.33,0,0,0-.36.67,1.28,1.28,0,0,0,1.15,1.49A1.26,1.26,0,0,0,44.22,47.45Z" fill="#fff" fill-rule="evenodd"/><path d="M35.73,53.39a9.85,9.85,0,0,0-.23-1.73c0-.24-.11-.48-.16-.73l-.23.18a11.36,11.36,0,0,0-1.54,1.39,1.33,1.33,0,0,0-.36.67,1.28,1.28,0,0,0,1.15,1.49A1.26,1.26,0,0,0,35.73,53.39Z" fill="#fff" fill-rule="evenodd"/><path d="M41.69,53.39a9.85,9.85,0,0,0-.23-1.73c0-.24-.11-.48-.16-.73l-.23.18a11.36,11.36,0,0,0-1.54,1.39,1.33,1.33,0,0,0-.36.67,1.28,1.28,0,0,0,1.15,1.49A1.26,1.26,0,0,0,41.69,53.39Z" fill="#fff" fill-rule="evenodd"/><path d="M49.75,47.45a9.85,9.85,0,0,0-.23-1.73c0-.24-.11-.48-.16-.73l-.23.18a11.36,11.36,0,0,0-1.54,1.39,1.33,1.33,0,0,0-.36.67,1.28,1.28,0,0,0,1.15,1.49A1.26,1.26,0,0,0,49.75,47.45Z" fill="#fff" fill-rule="evenodd"/><path d="M47.22,53.39A9.85,9.85,0,0,0,47,51.66c0-.24-.11-.48-.16-.73l-.23.18a11.36,11.36,0,0,0-1.54,1.39,1.33,1.33,0,0,0-.36.67,1.28,1.28,0,0,0,1.15,1.49A1.26,1.26,0,0,0,47.22,53.39Z" fill="#fff" fill-rule="evenodd"/></g></g></svg>