<svg id="Layer_1" data-name="Layer 1" xmlns="http://www.w3.org/2000/svg" viewBox="0 0 101 101"><title>fg</title><g opacity="0.8"><path d="M53.23,52.18A1.19,1.19,0,0,1,53,49.84a12.4,12.4,0,1,0-5.58,0,1.19,1.19,0,1,1-.53,2.32,14.77,14.77,0,1,1,6.64,0A1.25,1.25,0,0,1,53.23,52.18Z" fill="#fff"/><path d="M50.26-.43,10.55,39.28,50.26,79,90,39.28Zm0,74.71-14.1-14.1h28.2Zm.87-17.41V47.51L58,41a.89.89,0,0,0,0-1.26.9.9,0,0,0-1.26,0l-5.68,5.33V40l4.8-4.58a.87.87,0,0,0,0-1.24.89.89,0,0,0-1.26,0l-3.57,3.4V32.71l3.37-3.07a.88.88,0,0,0,.06-1.24.89.89,0,0,0-1.27-.06l-2.62,2.39-.42.37-.42-.39-2.59-2.38A.89.89,0,1,0,46,29.63l3.32,3.06v5l-3.59-3.48a.89.89,0,0,0-1.26,0,.9.9,0,0,0,0,1.26l4.83,4.69v5l-5.68-5.42a.92.92,0,0,0-1.27,0,.89.89,0,0,0,0,1.26l6.91,6.57v9.27H32.84l-17.6-17.6,35-35,35,35L67.69,56.87Z" fill="#fff"/></g><g opacity="0.95"><path d="M3.06,92.75a2.73,2.73,0,0,1,.23-1.14,2.37,2.37,0,0,1,.59-.82,2.55,2.55,0,0,1,.82-.49,2.66,2.66,0,0,1,1.84,0,2.56,2.56,0,0,1,.82.49,2.38,2.38,0,0,1,.59.82,2.73,2.73,0,0,1,.22,1.14v.54H6.66v-.54a1,1,0,0,0-.31-.82,1.14,1.14,0,0,0-1.45,0,1,1,0,0,0-.31.82v5.64a1,1,0,0,0,.31.82,1.14,1.14,0,0,0,1.45,0,1,1,0,0,0,.31-.82v-2H5.45V95H8.19v3.36A2.71,2.71,0,0,1,8,99.54a2.4,2.4,0,0,1-.59.81,2.55,2.55,0,0,1-.82.49,2.66,2.66,0,0,1-1.84,0,2.55,2.55,0,0,1-.82-.49,2.39,2.39,0,0,1-.59-.81,2.71,2.71,0,0,1-.23-1.15Z" fill="#fff"/><path d="M14.49,98.51a2.43,2.43,0,0,1-.19,1A2.51,2.51,0,0,1,13,100.8a2.46,2.46,0,0,1-1.92,0,2.51,2.51,0,0,1-1.32-1.32,2.42,2.42,0,0,1-.2-1V90.23h1.53v8.13a1.14,1.14,0,0,0,.27.84,1,1,0,0,0,1.35,0,1.14,1.14,0,0,0,.27-.84V90.23h1.53Z" fill="#fff"/><path d="M17.44,90.23h1.27l2.38,10.68H19.57l-.45-2.29H17l-.45,2.29H15.06Zm.64,3.07h0l-.75,3.87h1.53Z" fill="#fff"/><path d="M21.85,90.23h2.46q2.7,0,2.7,3.13a4,4,0,0,1-.29,1.6,2.26,2.26,0,0,1-1,1.07l1.65,4.87H25.72l-1.42-4.56h-.91v4.56H21.85ZM23.38,95h.87a1.54,1.54,0,0,0,.64-.11.83.83,0,0,0,.37-.32,1.37,1.37,0,0,0,.17-.52,5.64,5.64,0,0,0,0-1.42,1.28,1.28,0,0,0-.19-.52.85.85,0,0,0-.4-.32,1.8,1.8,0,0,0-.67-.11h-.79Z" fill="#fff"/><path d="M28.24,90.23H30.5a2.62,2.62,0,0,1,2,.73,2.84,2.84,0,0,1,.69,2v5a3,3,0,0,1-.73,2.21,2.87,2.87,0,0,1-2.09.71H28.24Zm1.53,9.24h.7a1.13,1.13,0,0,0,.91-.32,1.56,1.56,0,0,0,.27-1V93a1.62,1.62,0,0,0-.26-1,1.09,1.09,0,0,0-.93-.34h-.7Z" fill="#fff"/><path d="M34.67,90.23H36.2v10.68H34.67Z" fill="#fff"/><path d="M39.38,90.23h1.27L43,100.91H41.5l-.45-2.29H39l-.45,2.29H37ZM40,93.31h0l-.75,3.87h1.53Z" fill="#fff"/><path d="M43.72,90.23h1.47l2.31,6.43h0V90.23h1.53v10.68H47.62l-2.34-6.42h0v6.42H43.72Z" fill="#fff"/><path d="M53.23,90.23h4.56v1.44h-3v3.24H57.4v1.44H54.76v4.56H53.23Z" fill="#fff"/><path d="M58.69,92.75a2.73,2.73,0,0,1,.23-1.14,2.37,2.37,0,0,1,.59-.82,2.55,2.55,0,0,1,.82-.49,2.66,2.66,0,0,1,1.84,0,2.56,2.56,0,0,1,.82.49,2.38,2.38,0,0,1,.59.82,2.73,2.73,0,0,1,.22,1.14v5.64a2.71,2.71,0,0,1-.22,1.15,2.4,2.4,0,0,1-.59.81,2.55,2.55,0,0,1-.82.49,2.66,2.66,0,0,1-1.84,0,2.55,2.55,0,0,1-.82-.49,2.39,2.39,0,0,1-.59-.81,2.71,2.71,0,0,1-.23-1.15Zm1.53,5.64a1,1,0,0,0,.31.82,1.14,1.14,0,0,0,1.45,0,1,1,0,0,0,.31-.82V92.75a1,1,0,0,0-.31-.82,1.14,1.14,0,0,0-1.45,0,1,1,0,0,0-.31.82Z" fill="#fff"/><path d="M65.16,90.23h2.46q2.7,0,2.7,3.13A4,4,0,0,1,70,95,2.26,2.26,0,0,1,69,96l1.65,4.87H69l-1.42-4.56h-.91v4.56H65.16ZM66.69,95h.87a1.54,1.54,0,0,0,.64-.11.83.83,0,0,0,.37-.32,1.37,1.37,0,0,0,.17-.52,5.64,5.64,0,0,0,0-1.42,1.28,1.28,0,0,0-.19-.52.85.85,0,0,0-.4-.32,1.8,1.8,0,0,0-.67-.11h-.79Z" fill="#fff"/><path d="M71.55,90.23h4.56v1.44h-3v3.13h2.64v1.44H73.08v3.13h3v1.53H71.55Z" fill="#fff"/><path d="M82,93.31H80.52V93a1.63,1.63,0,0,0-.25-.91.91.91,0,0,0-.83-.38,1,1,0,0,0-.52.12.89.89,0,0,0-.31.31,1.29,1.29,0,0,0-.16.43,2.89,2.89,0,0,0,0,.52q0,.31,0,.53a.94.94,0,0,0,.11.37.86.86,0,0,0,.26.28,2.38,2.38,0,0,0,.47.24l1.17.46a2.89,2.89,0,0,1,.82.46,1.86,1.86,0,0,1,.49.61,2.6,2.6,0,0,1,.23.81,8.07,8.07,0,0,1,.06,1,5.5,5.5,0,0,1-.13,1.25,2.64,2.64,0,0,1-.44,1,2.12,2.12,0,0,1-.82.65,2.91,2.91,0,0,1-1.24.24,2.72,2.72,0,0,1-1-.2A2.46,2.46,0,0,1,77,99.47a2.48,2.48,0,0,1-.2-1V97.9h1.53v.48a1.25,1.25,0,0,0,.25.76,1,1,0,0,0,.83.34,1.35,1.35,0,0,0,.61-.11.77.77,0,0,0,.33-.31,1.3,1.3,0,0,0,.14-.5q0-.3,0-.66a6.5,6.5,0,0,0,0-.69,1.09,1.09,0,0,0-.13-.43.78.78,0,0,0-.27-.27,3.58,3.58,0,0,0-.46-.23l-1.09-.45a2.43,2.43,0,0,1-1.33-1.07,3.69,3.69,0,0,1-.34-1.67A3.87,3.87,0,0,1,77,91.93a2.65,2.65,0,0,1,.49-.93,2.33,2.33,0,0,1,.82-.62,2.69,2.69,0,0,1,1.15-.23,2.53,2.53,0,0,1,1,.21,2.59,2.59,0,0,1,.81.55,2.47,2.47,0,0,1,.52.77,2.24,2.24,0,0,1,.18.88Z" fill="#fff"/><path d="M84.19,91.67H82.42V90.23h5.07v1.44H85.72v9.24H84.19Z" fill="#fff"/><path d="M89,90.23h1.27l2.38,10.68H91.16l-.45-2.29H88.63l-.45,2.29H86.65Zm.64,3.07h0l-.75,3.87h1.53Z" fill="#fff"/><path d="M93.44,90.23H95v9.15h3v1.53H93.44Z" fill="#fff"/></g></svg>