<svg xmlns="http://www.w3.org/2000/svg" viewBox="0 0 101 101"><title>fg</title><g style="isolation:isolate"><g id="Layer_1" data-name="Layer 1"><g opacity="0.85" style="mix-blend-mode:multiply"><path d="M50.5,100.12A49.63,49.63,0,1,1,100.12,50.5,49.68,49.68,0,0,1,50.5,100.12Z" fill="#91c842"/><path d="M50.5,1.25A49.25,49.25,0,1,1,1.25,50.5,49.31,49.31,0,0,1,50.5,1.25m0-.75a50,50,0,1,0,50,50,50,50,0,0,0-50-50Z" fill="#fff"/></g><g id="_Group_" data-name="&lt;Group&gt;"><path d="M69.6,50.52A5.29,5.29,0,0,1,69,61.07h-1.1c-.55,0-1.1,0-1.65,0a1.75,1.75,0,0,1,0-3.5c.84,0,1.69,0,2.53,0A1.76,1.76,0,1,0,69,54c-1.25-.21-1.94-1-1.78-2A1.88,1.88,0,0,1,69.6,50.52Z" fill="#fff"/><path d="M61,47a5.29,5.29,0,0,1-1,10.51H41.78c-.3,0-.59,0-.88,0a1.79,1.79,0,0,0-1.83,1.81,1.77,1.77,0,0,0,1.83,1.69c1.21,0,2.42,0,3.64,0H60.06a5.29,5.29,0,0,1,1,10.51c-1.36.25-2.36-.3-2.56-1.41a1.86,1.86,0,0,1,1.87-2.09A1.72,1.72,0,0,0,62,66.21a1.79,1.79,0,0,0-2-1.61H47.61c-2,0-4-.15-6.05,0a5.39,5.39,0,0,1-5.49-7.69,33.45,33.45,0,0,1-4.13-2.61c-4.53-3.84-6.24-8.78-4.69-14.5A13.25,13.25,0,0,1,38.63,29.57c5.89-.94,10.55,1.29,14,6.14a1.36,1.36,0,0,0,1.47.74c5.28-.54,10.54,3.49,11.12,8.32C64,44.37,62.7,44,61.44,43.56a1.6,1.6,0,0,1-.67-.5c-2.69-3.31-5.65-4-9.65-2.05A10.56,10.56,0,1,0,39,53.82,12.65,12.65,0,0,0,41,54c6.24,0,12.48,0,18.72,0,.15,0,.3,0,.44,0a1.75,1.75,0,0,0,.19-3.5c-1.38-.26-2.06-1-1.88-2.06S59.67,46.77,61,47Z" fill="#fff"/></g></g></g></svg>